<svg class="canvas" viewBox="0 0 1920 1080" preserveAspectRatio="xMaxYMid slice" xmlns="http://www.w3.org/2000/svg" version="1.1" xmlns:xlink="http://www.w3.org/1999/xlink" xmlns:svgjs="http://svgjs.dev/svgjs"><rect width="1920" height="1080" fill="hsl(287, 65%, 15%)"></rect><defs><linearGradient x1="0.5" y1="0" x2="0" y2="1" id="SvgjsLinearGradient1098"><stop stop-color="#3a288a" offset="0"></stop><stop stop-color="#140611" offset="0.1"></stop></linearGradient><linearGradient x1="0.5" y1="0" x2="0" y2="1" id="SvgjsLinearGradient1099"><stop stop-color="#3a288a" offset="0"></stop><stop stop-color="#140611" offset="0.22857142857142856"></stop></linearGradient><linearGradient x1="0.5" y1="0" x2="0" y2="1" id="SvgjsLinearGradient1100"><stop stop-color="#3a288a" offset="0"></stop><stop stop-color="#140611" offset="0.3571428571428571"></stop></linearGradient><linearGradient x1="0.5" y1="0" x2="0" y2="1" id="SvgjsLinearGradient1101"><stop stop-color="#c9c0f2" offset="0"></stop><stop stop-color="#d742bb" offset="0.48571428571428565"></stop></linearGradient><linearGradient x1="0.5" y1="0" x2="0" y2="1" id="SvgjsLinearGradient1102"><stop stop-color="#ddc0f2" offset="0"></stop><stop stop-color="#d74280" offset="0.6142857142857142"></stop></linearGradient><linearGradient x1="0.5" y1="0" x2="0" y2="1" id="SvgjsLinearGradient1103"><stop stop-color="#ddc0f2" offset="0"></stop><stop stop-color="#d74280" offset="0.7428571428571429"></stop></linearGradient><linearGradient x1="0.5" y1="0" x2="0" y2="1" id="SvgjsLinearGradient1104"><stop stop-color="#c0c1f2" offset="0"></stop><stop stop-color="#d442d7" offset="0.8714285714285713"></stop></linearGradient></defs><path d="M0,-574.504265368996C58.88624484104634,-556.2990264016864,230.27163658813703,-496.5182030464891,353.31746904627806,-465.27283156513835C476.3633015044191,-434.0274600837876,602.1536110654553,-424.2770243986848,738.2749947488462,-387.0320364808915C874.3963784322372,-349.78704856309827,1033.4396191960209,-284.1350075049119,1170.045771146624,-241.80290405837874C1306.6519230972272,-199.47080061184553,1432.919534976902,-167.58918891658942,1557.9119064524646,-133.0394158016923C1682.904277928027,-98.48964268679515,1859.651984408744,-50.92679044111205,1920,-34.504265368996L 1920 1080 L 0 1080 Z" fill="url(&quot;#SvgjsLinearGradient1098&quot;)"></path><path d="M0,-453.6427101165355C84.10124814953885,-427.4014373468076,344.23825621087315,-338.63547083589435,504.6074888972331,-296.1950734981682C664.9767215835931,-253.75467616044205,808.029569420117,-246.23695859608142,962.2153961181596,-199.00032609017853C1116.401222816202,-151.76369358427564,1270.0916817718487,-62.71583350597702,1429.7224490854887,-12.77527846275079C1589.3532163991288,37.165276580475435,1838.2870748475814,81.73995706385722,1920,100.64300416917882L 1920 1080 L 0 1080 Z" fill="url(&quot;#SvgjsLinearGradient1099&quot;)"></path><path d="M0,-282.1944447740795C42.164513217584656,-269.9589585705306,170.43508875388687,-225.46142123337953,252.98707930550793,-208.78152755278612C335.539069857129,-192.1016338721927,419.4723583398575,-198.22019805551776,495.3119433097265,-182.11508269051907C571.1515282795955,-166.0099673255204,628.6202382237894,-144.39283850686388,708.0245891247217,-112.15083536279408C787.428940025654,-79.9088322187243,887.0750474615794,-23.103520827533224,971.7380487153204,11.336936173899637C1056.4010499690614,45.7773931753325,1135.986780529973,81.17676691038794,1216.0025966471676,94.49190664580308C1296.0184127643622,107.80704638121823,1371.1633497468163,69.69794458354916,1451.8329454184877,91.22777458639047C1532.5025410901592,112.75760458923178,1621.9923282469447,191.14601846102445,1700.0201706771968,223.6708866628509C1778.048013107449,256.1957548646773,1883.3366951128662,275.9259676082661,1920,286.3769837973491L 1920 1080 L 0 1080 Z" fill="url(&quot;#SvgjsLinearGradient1100&quot;)"></path><path d="M0,-176.60514459914182C54.72128165854886,-167.06214545233343,227.47991471044884,-152.1150016289624,328.32768995129317,-119.34714971829136C429.1754651921375,-86.57929780762032,492.24948249878054,-24.270693526574604,605.0866514450659,20.00196686488448C717.9238203913511,64.27462725634356,886.3048539225015,106.53696472153845,1005.350703629005,146.28881263046316C1124.3965533355085,186.04066053938786,1227.922138636207,231.01769997536667,1319.361749684087,258.5130543184327C1410.8013607319672,286.0084086614987,1453.881994863633,286.63778136559796,1553.9883699162851,311.26093868885937C1654.0947449689372,335.8840960121208,1858.9980616527141,390.4201549964775,1920,406.2519982580011L 1920 1080 L 0 1080 Z" fill="url(&quot;#SvgjsLinearGradient1101&quot;)"></path><path d="M0,-74.84292959804927C79.11336284308939,-44.98384185434682,321.17869246639657,54.78526207024982,474.68017705853634,104.31159686416541C628.1816616506761,153.837931658081,760.6569381175659,182.38129469870364,921.0089075528384,222.31507916544425C1081.360876988111,262.24886363218485,1270.2934782623115,293.91682893471506,1436.7919936701717,343.914303664609C1603.2905090780318,393.91177839450296,1839.465332278362,492.56899023144143,1920,522.2999275448079L 1920 1080 L 0 1080 Z" fill="url(&quot;#SvgjsLinearGradient1102&quot;)"></path><path d="M0,133.92692946661265C61.28291908588779,154.7339182524575,256.473397496906,231.12178167149307,367.69751451532676,258.76886218168175C478.92163153374753,286.41594269187044,571.5928278593148,265.77008187426696,667.3447021105245,299.8094125277447C763.0965763617343,333.84874318122246,836.9568686083082,426.13354988698785,942.2087600225852,463.0048461025482C1047.4606514368622,499.8761423181085,1190.871232106878,491.7026374474815,1298.8560505961862,521.0371898211068C1406.8408690854942,550.3717421947322,1486.5936793911314,601.6257751652872,1590.1176709584338,639.0121603443001C1693.6416625257361,676.398545523313,1865.0196118264057,727.6316108033701,1920,745.3555008951842L 1920 1080 L 0 1080 Z" fill="url(&quot;#SvgjsLinearGradient1103&quot;)"></path><path d="M0,279.9206327202716C60.6355474185494,293.37971279538203,231.4828652005618,311.6032893504406,363.8132845112964,360.67511317093397C496.14370382203094,409.74693699142733,661.3773583169724,521.1251638059156,793.9825158644074,574.3515756432317C926.5876734118425,627.5779874805479,1039.4796984934844,639.0684135167056,1159.4442297959065,680.0335841948307C1279.4087610983286,720.9987548729558,1387.0104086449248,782.5423773386946,1513.7697036789405,820.1425997119824C1640.528998712956,857.7428220852702,1852.2949506131567,891.3861986474615,1920,905.6349184345573L 1920 1080 L 0 1080 Z" fill="url(&quot;#SvgjsLinearGradient1104&quot;)"></path></svg>