<?xml version="1.0" standalone="no"?><!DOCTYPE svg PUBLIC "-//W3C//DTD SVG 1.1//EN" "http://www.w3.org/Graphics/SVG/1.1/DTD/svg11.dtd"><svg t="1635267139569" class="icon" viewBox="0 0 1024 1024" version="1.1" xmlns="http://www.w3.org/2000/svg" p-id="1896" xmlns:xlink="http://www.w3.org/1999/xlink" width="200" height="200"><defs><style type="text/css"></style></defs><path d="M65.44 250.624c-90.592 130.144-79.36 299.392-10.112 437.6 1.568 3.36 3.328 6.56 5.024 9.76 0.992 2.208 2.08 4.256 3.296 6.368 0.544 1.184 1.312 2.432 2.016 3.552 1.12 2.208 2.304 4.352 3.456 6.496l6.688 11.296c1.248 2.08 2.432 4.128 3.84 6.24 2.336 4 5.12 7.968 7.552 12 1.12 1.664 2.144 3.328 3.36 4.992 4.736 7.424 9.088 13.6 13.696 19.584l-0.48-0.64c3.328 4.576 6.656 8.992 10.24 13.44 1.152 1.632 2.432 3.232 3.616 4.864l9.44 11.488c1.152 1.312 2.304 2.848 3.552 4.224 4.192 5.024 8.608 9.952 13.056 14.88 0 0.096 0.128 0.16 0.224 0.288 5.504 6.944 11.456 13.088 17.92 18.624l0.192 0.16c3.424 3.488 6.816 7.008 10.464 10.4l4.32 4.128c4.736 4.448 9.472 8.864 14.464 13.152 0.096 0 0.128 0.096 0.224 0.128l2.432 2.144c4.352 3.808 8.736 7.584 13.216 11.104l5.344 4.48c3.616 2.912 7.392 5.664 11.104 8.544l5.792 4.448c3.968 2.976 8.192 5.92 12.256 8.832 1.504 1.056 2.976 2.144 4.512 3.104l1.248 0.992 12 7.904 5.12 3.424c6.272 4 12.512 7.808 18.688 11.552 1.792 0.896 3.584 1.888 5.248 2.912 4.608 2.656 9.376 5.344 14.048 7.808 2.56 1.44 5.216 2.688 7.84 4 3.2 1.792 6.528 3.552 9.952 5.344a12.384 12.384 0 0 1 2.464 1.024l-0.064-0.032c1.408 0.64 2.72 1.312 4.096 2.016 5.12 2.56 10.464 4.992 16 7.424 1.024 0.416 2.144 0.864 3.232 1.44 6.144 2.688 12.288 5.248 18.656 7.776 1.44 0.416 2.976 1.152 4.48 1.696 5.76 2.176 11.68 4.384 17.536 6.496l2.144 0.768c6.528 2.208 12.96 4.352 19.584 6.4 1.536 0.416 3.104 0.992 4.736 1.408 6.784 2.048 13.344 4.48 20.192 5.792 437.76 79.776 564.992-263.2 564.992-263.2-106.88 139.168-296.544 175.872-476.16 135.04-6.656-1.536-13.312-3.68-20-5.632a468.48 468.48 0 0 1-28.224-8.96l4.032 1.248-2.656-1.024c-5.792-1.952-11.392-4.128-17.056-6.304a55.616 55.616 0 0 0-4.224-1.6l-0.48-0.128c-6.272-2.528-12.384-5.12-18.432-7.808-1.312-0.416-2.432-1.024-3.744-1.536a529.28 529.28 0 0 1-21.28-9.856l5.888 2.592c-1.568-0.672-2.976-1.408-4.512-2.208a320.704 320.704 0 0 1-11.936-6.048 135.2 135.2 0 0 1-8.832-4.544l0.864 0.448c-4.832-2.56-9.632-5.344-14.464-7.968-1.44-1.024-3.104-1.888-4.768-2.816a573.696 573.696 0 0 1-21.376-13.088l2.688 1.6a93.6 93.6 0 0 1-5.28-3.552l0.256 0.192a245.472 245.472 0 0 1-14.08-9.312l0.768 0.544c-1.504-0.992-2.848-2.048-4.384-3.104-5.44-3.776-9.536-6.752-13.568-9.792l1.024 0.736c-1.792-1.44-3.712-2.816-5.632-4.256-3.744-2.944-7.552-5.76-11.296-8.864l-5.024-4c-5.568-4.48-10.208-8.416-14.752-12.416l0.512 0.416A11.392 11.392 0 0 0 280.672 736l-0.032-0.032-14.816-13.472-4.256-4c-3.488-3.552-7.072-6.944-10.656-10.464l-4.128-4.256a394.56 394.56 0 0 1-12.928-13.472l-0.256-0.288-0.64-0.672a761.216 761.216 0 0 1-13.344-15.104c-1.152-1.312-2.208-2.72-3.424-4.128l-9.632-11.808a654.816 654.816 0 0 1-12.8-16.704l-1.728-2.4C92.416 503.168 56.352 315.456 136.096 161.472z" fill="#0769AD" p-id="1897"></path><path d="M346.496 141.024c-65.664 94.24-61.952 220.288-10.848 319.968 9.472 18.688 19.072 34.496 29.696 49.504l-0.8-1.216c9.824 14.08 20.64 30.72 33.792 42.08a284.8 284.8 0 0 0 14.688 15.328l3.84 3.84c4.864 4.704 9.856 9.312 14.944 13.856l0.64 0.544c5.12 4.512 10.88 9.28 16.768 13.92l0.896 0.672c1.44 0.992 2.688 2.144 4.096 3.104 5.984 4.608 12 9.056 18.208 13.44l0.64 0.384c2.656 1.92 5.472 3.68 8.448 5.536 1.184 0.768 2.56 1.792 3.84 2.56 4.512 2.912 8.96 5.632 13.536 8.416 0.736 0.288 1.376 0.672 2.048 0.992 3.84 2.336 8.032 4.608 12.032 6.688 1.408 0.864 2.784 1.504 4.224 2.304 2.848 1.408 5.664 2.912 8.416 4.352l1.376 0.608c5.76 2.816 11.648 5.472 17.408 8.096a448.192 448.192 0 0 0 18.24 7.488c2.144 0.736 4.128 1.568 6.144 2.208 4.352 1.632 8.928 3.104 13.216 4.608l5.984 1.92c6.24 1.92 12.544 4.448 19.104 5.504 337.92 56.032 416.16-204.256 416.16-204.256-70.432 101.376-206.752 149.664-352.032 111.968a315.2 315.2 0 0 1-21.536-6.24l2.432 0.704c-2.048-0.544-3.84-1.184-5.792-1.792-4.448-1.536-8.992-3.04-13.312-4.64l-6.144-2.304c-4.768-1.92-9.632-3.712-14.304-5.76-1.44-0.64-2.784-1.056-3.872-1.696-5.984-2.688-12-5.344-17.792-8.192l-8.8-4.576-5.088-2.56c-3.936-2.048-7.552-4.192-11.296-6.4a30.464 30.464 0 0 1-2.752-1.504l0.096 0.064c-4.512-2.816-9.216-5.536-13.536-8.448-1.44-0.8-2.784-1.792-4.128-2.656l-8.864-5.792c-6.144-4.256-12.16-8.864-18.208-13.312-1.376-1.248-2.688-2.272-4-3.36-63.872-50.208-114.272-118.88-138.144-196.608-25.184-80.8-19.616-171.424 23.84-244.992z" fill="#0769AD" p-id="1898"></path><path d="M582.816 59.04c-38.752 56.832-42.464 127.392-15.776 190.08 28.32 66.56 86.272 118.816 153.76 143.584 2.784 1.056 5.472 1.952 8.32 2.976l3.744 1.152c3.936 1.248 7.904 2.688 11.936 3.584 186.72 36 237.216-95.872 250.848-115.232-44.448 63.84-119.008 79.136-210.432 56.928a202.144 202.144 0 0 1-23.424-7.296l1.408 0.48a262.4 262.4 0 0 1-27.936-11.552l1.6 0.704a278.272 278.272 0 0 1-46.784-28.672l0.672 0.512c-81.92-62.048-132.64-180.48-79.232-276.96z" fill="#0769AD" p-id="1899"></path></svg>