<?xml version="1.0" standalone="no"?><!DOCTYPE svg PUBLIC "-//W3C//DTD SVG 1.1//EN" "http://www.w3.org/Graphics/SVG/1.1/DTD/svg11.dtd"><svg t="1635349627970" class="icon" viewBox="0 0 1024 1024" version="1.1" xmlns="http://www.w3.org/2000/svg" p-id="6874" xmlns:xlink="http://www.w3.org/1999/xlink" width="200" height="200"><defs><style type="text/css"></style></defs><path d="M1004.37376 252.8c-42.581333-69.845333-131.925333-92.586667-208.298667-48.512-107.306667 61.952-41.514667 227.498667-130.986666 294.912-0.341333-64.128-21.290667-122.794667-57.429334-168.362667-46.08-57.984-116.821333-94.848-201.472-94.848-85.888 0-153.557333 45.44-197.546666 113.450667-33.408 51.626667-53.162667 116.266667-56.832 183.850667-62.250667 19.669333-116.522667-24.064-148.266667-70.570667-29.994667 184.490667 139.605333 177.792 167.424 180.693333 24.192 2.474667-47.146667 156.458667-5.76 183.509334 33.024 21.674667 138.709333 19.498667 160.469333-0.256 26.666667-24.192 8.277333-97.749333-4.309333-163.882667 82.389333 3.456 108.970667 4.778667 190.976-3.541333-8.96 87.168-40.32 146.816-0.298667 169.770666 27.221333 15.530667 139.605333 14.122667 167.68-14.378666 27.562667-27.946667-36.096-153.514667-5.162666-177.408 127.061333-98.261333 125.397333-171.648 177.322666-201.728 35.584-20.608 113.066667 6.101333 154.154667-46.464 27.52-35.370667 20.608-99.712-1.664-136.234667z" p-id="6875" fill="#707070"></path></svg>