<?xml version="1.0" standalone="no"?><!DOCTYPE svg PUBLIC "-//W3C//DTD SVG 1.1//EN" "http://www.w3.org/Graphics/SVG/1.1/DTD/svg11.dtd"><svg t="1635266310393" class="icon" viewBox="0 0 1220 1024" version="1.1" xmlns="http://www.w3.org/2000/svg" p-id="5212" xmlns:xlink="http://www.w3.org/1999/xlink" width="238.28125" height="200"><defs><style type="text/css"></style></defs><path d="M854.716616 315.732525h-16.580889a392.414361 392.414361 0 0 0-112.04661 12.310054 414.773438 414.773438 0 0 0-175.857909 87.175277 330.864093 330.864093 0 0 0-106.268421 165.306434 262.530735 262.530735 0 0 0-10.8027 102.500038c2.26103 19.093144 6.28064 37.935063 9.546572 58.03311a115.312543 115.312543 0 0 1-17.08334 1.758579 540.888681 540.888681 0 0 1-63.811298-4.52206c-26.881137-4.773286-53.511049-12.310054-80.140961-19.34437a15.827212 15.827212 0 0 0-13.063731 1.507353l-127.120145 76.875029a25.122558 25.122558 0 0 1-5.778188 2.763481c-7.285542 2.512256-11.807602-1.507354-10.049023-8.792895 4.522061-16.580889 9.295347-33.161777 14.068632-50.245117 7.034316-25.122558 14.571084-47.984086 21.354175-72.101743a11.053926 11.053926 0 0 0-4.01961-9.295346c-20.600498-18.339468-42.708349-34.920356-62.052719-54.515952a320.81507 320.81507 0 0 1-67.579682-100.490233A337.144733 337.144733 0 0 1 0.549632 352.41146a320.81507 320.81507 0 0 1 29.644619-115.563768 311.770949 311.770949 0 0 1 51.75247-81.89954 703.431634 703.431634 0 0 1 67.077231-64.062524A334.883703 334.883703 0 0 1 238.711485 38.379481a658.964705 658.964705 0 0 1 72.352968-23.86643A400.202354 400.202354 0 0 1 441.450531 0.695644a667.506375 667.506375 0 0 1 77.37748 8.039218 417.034468 417.034468 0 0 1 88.68263 25.122559 413.51731 413.51731 0 0 1 152.745155 102.751263 373.321217 373.321217 0 0 1 92.199789 167.81869c0 1.507354 0 2.763481 1.256128 4.270835a42.708349 42.708349 0 0 1 1.004903 7.034316zM266.095074 193.888117A57.028207 57.028207 0 1 0 322.62083 251.921227a56.525756 56.525756 0 0 0-56.525756-58.03311z m337.395958 0a57.028207 57.028207 0 0 0-57.530658 55.018403A58.03311 58.03311 0 0 0 603.491032 307.442081a56.776982 56.776982 0 1 0 0-113.553964z" fill="#24B038" p-id="5213"></path><path d="M836.377148 348.140625a457.230562 457.230562 0 0 1 94.209594 12.812505 320.312619 320.312619 0 0 1 73.860321 25.122559c17.08334 8.792895 34.166679 17.08334 50.245117 25.122558a123.100536 123.100536 0 0 1 14.319858 11.305151l17.837017 12.812505a44.215703 44.215703 0 0 1 5.778188 3.517158A361.76484 361.76484 0 0 1 1131.064757 478.024252a401.960933 401.960933 0 0 1 38.437515 59.540463 247.205974 247.205974 0 0 1 26.881137 136.415492 296.697414 296.697414 0 0 1-20.098047 90.692436 340.913117 340.913117 0 0 1-33.664228 60.796591 215.049099 215.049099 0 0 1-22.107851 25.122558c-8.290444 8.792895-16.580889 17.334565-25.122559 25.122559a151.991478 151.991478 0 0 1-18.339467 15.32476 10.049023 10.049023 0 0 0-4.270835 13.314956l13.566181 40.447319c5.526963 17.08334 11.305151 34.417905 16.580889 51.75247 0 2.009805 0 6.029414-1.507354 6.783091a9.295347 9.295347 0 0 1-7.787993 0q-25.122558-14.319858-52.003695-29.393393l-42.70835-25.122559a21.856626 21.856626 0 0 0-19.846821-1.758579 559.479374 559.479374 0 0 1-56.776982 15.827212 359.252584 359.252584 0 0 1-45.974281 8.039219 340.913117 340.913117 0 0 1-86.170375 0c-22.610303-3.768384-45.220605-6.783091-67.328457-12.561279a388.645978 388.645978 0 0 1-57.028207-21.102949 511.997739 511.997739 0 0 1-50.245117-25.122559 311.519723 311.519723 0 0 1-79.136059-69.338261 290.919226 290.919226 0 0 1-30.649521-43.713251 328.351838 328.351838 0 0 1-22.610302-50.245117 219.57116 219.57116 0 0 1-11.053926-48.988989 464.767329 464.767329 0 0 1-3.014707-67.328456 248.713328 248.713328 0 0 1 16.580889-70.845615 279.614074 279.614074 0 0 1 34.920356-63.560072 277.60427 277.60427 0 0 1 46.476733-52.003696 407.236671 407.236671 0 0 1 44.466928-31.905649 263.284411 263.284411 0 0 1 37.935063-22.359077 566.011239 566.011239 0 0 1 62.303945-23.615205 410.502603 410.502603 0 0 1 59.791688-13.314956c21.856626-2.512256 43.462026-4.773286 64.816201-6.783091z m75.367675 189.926542a50.245117 50.245117 0 0 0 50.245117 54.515951 50.245117 50.245117 0 0 0 53.259823-52.757372 53.008598 53.008598 0 0 0-53.259823-52.003696 53.511049 53.511049 0 0 0-50.245117 50.245117z m-211.280716-50.245117a52.254921 52.254921 0 1 0 1.256128 104.509843 50.245117 50.245117 0 0 0 50.245117-54.767178 48.486538 48.486538 0 0 0-51.501245-49.49144z" fill="#24B038" p-id="5214"></path></svg>