<?xml version="1.0" standalone="no"?><!DOCTYPE svg PUBLIC "-//W3C//DTD SVG 1.1//EN" "http://www.w3.org/Graphics/SVG/1.1/DTD/svg11.dtd"><svg t="1635266876989" class="icon" viewBox="0 0 1024 1024" version="1.1" xmlns="http://www.w3.org/2000/svg" p-id="6072" xmlns:xlink="http://www.w3.org/1999/xlink" width="200" height="200"><defs><style type="text/css"></style></defs><path d="M382.464 964.096c-2.048-1.536-3.584-22.528-3.584-45.568v-42.496l-132.608-1.536-132.608-1.536-14.336-12.8c-7.68-7.168-22.528-26.624-33.28-43.008l-19.968-30.208V195.072l11.776-13.824c11.776-13.824 17.92-14.848 234.496-48.64 122.368-18.944 282.624-44.032 355.84-55.296 73.728-11.776 140.288-20.992 148.48-20.992 8.704 0 20.48 5.12 29.184 12.8 13.312 12.8 13.824 15.36 13.824 60.928v48.128l54.272 2.048c52.224 1.536 54.784 2.048 66.56 15.872l12.288 14.336v635.392l-14.848 14.848-14.848 14.848h-192.512c-105.984 0-192.512-1.536-192.512-3.072s12.288-16.384 27.136-33.28l26.624-30.208h138.24c76.288 0 141.312-2.048 144.896-4.608 5.12-3.072 7.168-59.392 9.728-268.288 3.584-304.64 5.632-290.304-39.424-290.304h-25.088l-1.536 202.752-1.536 202.752-13.312 11.264c-10.752 9.216-29.184 13.824-93.696 23.552l-80.384 12.288-67.584 74.24c-178.176 197.632-186.368 205.312-199.68 191.488z m-3.584-188.416c0-18.432-1.536-33.28-4.096-33.28-2.048 0-56.832 8.192-121.344 17.92-65.024 9.728-120.832 17.92-123.904 17.92-9.728 0-8.192 6.656 3.584 19.456 10.24 10.752 13.824 11.264 128 11.264h117.76v-33.28z" fill="#F91E1E" p-id="6073"></path></svg>