<?xml version="1.0" standalone="no"?><!DOCTYPE svg PUBLIC "-//W3C//DTD SVG 1.1//EN" "http://www.w3.org/Graphics/SVG/1.1/DTD/svg11.dtd"><svg t="1635349731077" class="icon" viewBox="0 0 1024 1024" version="1.1" xmlns="http://www.w3.org/2000/svg" p-id="7083" xmlns:xlink="http://www.w3.org/1999/xlink" width="200" height="200"><defs><style type="text/css"></style></defs><path d="M358.4 194.56h51.2q4.0448 0 7.9872-0.768 3.9424-0.8192 7.68-2.3552t7.0656-3.7888q3.3792-2.2528 6.1952-5.12 2.8672-2.816 5.12-6.144 2.2528-3.3792 3.7888-7.1168 1.536-3.7376 2.304-7.68Q450.56 157.696 450.56 153.6t-0.8192-7.9872q-0.768-3.9424-2.304-7.68t-3.7888-7.0656q-2.2528-3.3792-5.12-6.2464-2.816-2.816-6.144-5.12-3.3792-2.2016-7.1168-3.7376-3.7376-1.536-7.68-2.3552Q413.6448 112.64 409.6 112.64H358.4q-59.392 0-101.376 41.984Q215.04 196.608 215.04 256v141.5168q0 37.9904-33.9968 54.9376l-45.7728 22.9376q-3.584 1.792-6.8096 4.2496-3.1744 2.4576-5.8368 5.5296-2.6112 3.072-4.608 6.5536-2.048 3.4816-3.2768 7.3216-1.28 3.84-1.792 7.8336-0.512 3.9936-0.2048 8.0384 0.256 3.9936 1.3312 7.8848 1.0752 3.8912 2.8672 7.5264 2.9696 5.9392 7.68 10.6496 4.7104 4.7104 10.6496 7.68l45.7728 22.8864q33.9968 16.9472 33.9968 54.9376V768q0 59.392 41.984 101.376 41.984 41.984 101.376 41.984h51.2q4.0448 0 7.9872-0.768 3.9424-0.8192 7.68-2.3552t7.0656-3.7888q3.3792-2.2528 6.1952-5.12 2.8672-2.816 5.12-6.144 2.2528-3.3792 3.7888-7.1168 1.536-3.7376 2.304-7.68Q450.56 874.496 450.56 870.4t-0.8192-7.9872q-0.768-3.9424-2.304-7.68t-3.7888-7.0656q-2.2528-3.3792-5.12-6.2464-2.816-2.816-6.144-5.12-3.3792-2.2016-7.1168-3.7376-3.7376-1.536-7.68-2.3552Q413.6448 829.44 409.6 829.44H358.4q-25.4464 0-43.4688-17.9712Q296.96 793.4464 296.96 768v-141.5168q0-40.704-21.4016-75.3664Q261.12 527.872 240.0256 512q21.1456-15.872 35.5328-39.1168 21.4016-34.6624 21.4016-75.3664V256q0-25.4464 17.9712-43.4176Q332.9536 194.56 358.4 194.56z m256 0q-4.0448 0-7.9872-0.768-3.9936-0.8192-7.68-2.3552-3.7376-1.536-7.1168-3.7888-3.328-2.2528-6.144-5.12-2.9184-2.816-5.12-6.144-2.2528-3.3792-3.7888-7.1168-1.536-3.7376-2.3552-7.68Q573.44 157.696 573.44 153.6t0.768-7.9872q0.8192-3.9424 2.3552-7.68t3.7888-7.0656q2.2016-3.3792 5.12-6.2464 2.816-2.816 6.144-5.12 3.3792-2.2016 7.1168-3.7376 3.6864-1.536 7.68-2.3552Q610.304 112.64 614.4 112.64h51.2q59.392 0 101.376 41.984 41.984 41.984 41.984 101.376v141.5168q0 37.9904 33.9456 54.9376l45.824 22.9376q5.9392 2.9696 10.6496 7.68 4.6592 4.6592 7.68 10.5984 1.792 3.584 2.816 7.5264 1.0752 3.8912 1.3824 7.8848 0.256 4.0448-0.2048 8.0384-0.512 3.9936-1.792 7.8336t-3.2768 7.3216q-2.048 3.5328-4.608 6.5536-2.6624 3.072-5.888 5.5296-3.1744 2.4576-6.7584 4.3008l-45.824 22.8864q-33.9456 16.9472-33.9456 54.9376V768q0 59.392-41.984 101.376-41.984 41.984-101.376 41.984h-51.2q-4.0448 0-7.9872-0.768-3.9936-0.8192-7.68-2.3552-3.7376-1.536-7.1168-3.7888-3.328-2.2528-6.144-5.12-2.9184-2.816-5.12-6.144-2.2528-3.3792-3.7888-7.1168-1.536-3.7376-2.3552-7.68Q573.44 874.496 573.44 870.4t0.768-7.9872q0.8192-3.9424 2.3552-7.68t3.7888-7.0656q2.2016-3.3792 5.12-6.2464 2.816-2.816 6.144-5.12 3.3792-2.2016 7.1168-3.7376 3.6864-1.536 7.68-2.3552 3.9424-0.768 7.9872-0.768h51.2q25.4464 0 43.4176-17.9712 18.0224-18.0224 18.0224-43.4688v-141.5168q0-40.704 21.4016-75.3664 14.336-23.2448 35.5328-39.1168-21.1456-15.872-35.5328-39.1168-21.4016-34.6624-21.4016-75.3664V256q0-25.4464-18.0224-43.4176Q691.0464 194.56 665.6 194.56h-51.2z" p-id="7084"></path></svg>